# xmcd
#
# Track frame offsets:
# 182
# 15450
# 26422
# 37367
# 48170
# 57885
# 69965
# 82642
# 93577
# 103235
# 113432
# 124825
# 138847
# 154282
# 168510
# 185145
#
# Disc length: 2608 seconds
#
#
# Revision: 0
# Processed by: cddbd v1.4PL0 Copyright (c) Steve Scherf et al.
# Submitted via: FreeRIP 2.35 
#
DISCID=cd0a2e10
DTITLE=Eddy Arnold - Seven Decades of Hits
DYEAR=2000
DGENRE=Country
TTITLE0=To Life
TTITLE1=Anytime
TTITLE2=I Walk Alone
TTITLE3=I'll Hold You In My Heart
TTITLE4=In The Misty Moonlight
TTITLE5=Then You Can Tell Me Goodbye
TTITLE6=Lonely Again
TTITLE7=Make The World Go Away
TTITLE8=What's He Doing In My World
TTITLE9=The Last Word In Lonesome Is Me
TTITLE10=Bouquet of Roses
TTITLE11=Have I Told You Lately That I Love You (w. Carrie-Margaret Frey)
TTITLE12=Let It Be Me (w. Lisa Carrie)
TTITLE13=Cattle Call (w. Leann Rimes)
TTITLE14=The End (ft. Christy Miller)
TTITLE15=Happy Birthday To You
EXTD=
EXTT0=
EXTT1=
EXTT2=
EXTT3=
EXTT4=
EXTT5=
EXTT6=
EXTT7=
EXTT8=
EXTT9=
EXTT10=
EXTT11=
EXTT12=
EXTT13=
EXTT14=
EXTT15=
PLAYORDER=
